#!OML:ASF G:\JayActor3\Patient Classification 1\Patient 1\Session 5\male.ASF
:FULLY-SPECIFIED
:DEGREES
384
root 41.7893 17.6513 -5.70303 331.041 -87.0934 -312.367
lowerback 20.327 -1.93526 1.81085
upperback 5.86604 -2.5915 -1.33062
thorax -5.13306 -1.41067 -1.81265
lowerneck 6.54928 0.340697 3.02779
upperneck -22.0592 0.706816 1.1574
head -7.87083 -0.238663 -0.159734
rclavicle 2.68359e-014 1.2921e-014
rhumerus -30.6189 -2.48346 -89.0289
rradius 35.7289
rwrist -0.406625
rhand -22.3469 -9.61509
rfingers 7.12502
rthumb 4.07376 -39.5559
lclavicle 2.68359e-014 1.2921e-014
lhumerus -36.6665 6.47581 81.6492
lradius 32.2185
lwrist 23.7434
lhand -21.1502 14.1708
lfingers 7.12502
lthumb 5.22936 44.0863
rfemur -41.8625 0.557425 20.4455
rtibia 35.0102
rfoot 7.84246 -7.35247
rtoes -2.22825
lfemur -14.7691 4.76651 -18.4918
ltibia 36.6565
lfoot 23.8942 -7.78342
ltoes -23.1368
385
root 41.6942 17.672 -5.72917 332.906 -86.9827 -314.163
lowerback 20.3385 -1.94208 1.87656
upperback 5.87329 -2.58755 -1.3404
thorax -5.134 -1.40881 -1.86129
lowerneck 6.54251 0.307641 3.03197
upperneck -22.0785 0.665793 1.18135
head -7.87663 -0.261507 -0.1489
rclavicle -3.77691e-015 -1.76918e-014
rhumerus -30.662 -2.30852 -89.134
rradius 35.8942
rwrist -0.601748
rhand -22.291 -9.71206
rfingers 7.12502
rthumb 4.12776 -39.6518
lclavicle -3.77691e-015 -1.76918e-014
lhumerus -36.6786 6.35313 81.6143
lradius 32.1467
lwrist 23.7472
lhand -21.0818 14.1615
lfingers 7.12502
lthumb 5.29533 44.0753
rfemur -41.4897 0.55639 20.4792
rtibia 34.8762
rfoot 7.74962 -7.40648
rtoes -1.97036
lfemur -16.0429 5.01304 -18.4755
ltibia 38.0881
lfoot 23.3738 -7.95055
ltoes -23.4773
386
root 41.599 17.6918 -5.75427 334.838 -86.8742 -316.049
lowerback 20.356 -1.94867 1.96131
upperback 5.88569 -2.57968 -1.34795
thorax -5.13287 -1.40521 -1.91926
lowerneck 6.52778 0.276198 3.03568
upperneck -22.0751 0.624829 1.1942
head -7.87333 -0.28231 -0.14176
rclavicle 6.75868e-015 1.96797e-014
rhumerus -30.7038 -2.14169 -89.2303
rradius 36.0176
rwrist -0.754503
rhand -22.2252 -9.81081
rfingers 7.12502
rthumb 4.19135 -39.7493
lclavicle 6.75868e-015 1.96797e-014
lhumerus -36.6996 6.24612 81.5695
lradius 32.0777
lwrist 23.7218
lhand -21.022 14.1489
lfingers 7.12502
lthumb 5.35312 44.0613
rfemur -41.0811 0.541357 20.5243
rtibia 34.7263
rfoot 7.65667 -7.4302
rtoes -1.63919
lfemur -17.3192 5.30333 -18.467
ltibia 39.4662
lfoot 22.9129 -8.08478
ltoes -23.7505
387
root 41.5038 17.7105 -5.77842 336.874 -86.7666 -318.058
lowerback 20.3812 -1.95588 2.06715
upperback 5.90216 -2.56839 -1.35242
thorax -5.13175 -1.40013 -1.98667
lowerneck 6.50867 0.247637 3.04018
upperneck -22.0555 0.585454 1.19346
head -7.86371 -0.300427 -0.139469
rclavicle -1.80894e-014 -3.75703e-014
rhumerus -30.7448 -1.98978 -89.3146
rradius 36.0957
rwrist -0.847397
rhand -22.1481 -9.88397
rfingers 7.12502
rthumb 4.26573 -39.821
lclavicle -1.80894e-014 -3.75703e-014
lhumerus -36.7318 6.15999 81.5142
lradius 32.0129
lwrist 23.6531
lhand -20.9829 14.1374
lfingers 7.12502
lthumb 5.39086 44.0488
rfemur -40.6423 0.516051 20.5811
rtibia 34.5672
rfoot 7.56169 -7.43214
rtoes -1.24646
lfemur -18.5965 5.61419 -18.4669
ltibia 40.7856
lfoot 22.506 -8.18572
ltoes -24.023
388
root 41.4087 17.7276 -5.80179 338.984 -86.6554 -320.162
lowerback 20.4131 -1.96387 2.18596
upperback 5.92251 -2.55527 -1.35092
thorax -5.12995 -1.39427 -2.05539
lowerneck 6.48986 0.221969 3.04641
upperneck -22.024 0.547276 1.1755
head -7.85006 -0.315918 -0.143344
rclavicle 1.63003e-014 3.18055e-014
rhumerus -30.7863 -1.85102 -89.3835
rradius 36.1381
rwrist -0.888978
rhand -22.0597 -9.94283
rfingers 7.12502
rthumb 4.35112 -39.8781
lclavicle 1.63003e-014 3.18055e-014
lhumerus -36.7784 6.10337 81.4494
lradius 31.952
lwrist 23.5348
lhand -20.9745 14.1329
lfingers 7.12502
lthumb 5.39899 44.0441
rfemur -40.1821 0.483746 20.6455
rtibia 34.4105
rfoot 7.46168 -7.42415
rtoes -0.76827
lfemur -19.8743 5.92836 -18.4771
ltibia 42.0397
lfoot 22.1353 -8.23098
ltoes -24.2235
389
root 41.3139 17.7425 -5.82465 341.105 -86.5354 -322.29
lowerback 20.4436 -1.97194 2.31307
upperback 5.94581 -2.54048 -1.34578
thorax -5.12417 -1.38762 -2.12548
lowerneck 6.46988 0.199506 3.04856
upperneck -21.9846 0.512154 1.15218
head -7.83348 -0.328743 -0.148621
rclavicle -7.196e-014 -3.95581e-014
rhumerus -30.8226 -1.73697 -89.4376
rradius 36.1353
rwrist -0.8771
rhand -22.0072 -9.91853
rfingers 7.12502
rthumb 4.4018 -39.8528
lclavicle -7.196e-014 -3.95581e-014
lhumerus -36.8388 6.07399 81.3728
lradius 31.8931
lwrist 23.374
lhand -20.9929 14.1334
lfingers 7.12502
lthumb 5.38117 44.0451
rfemur -39.7168 0.444047 20.7137
rtibia 34.2682
rfoot 7.35567 -7.41079
rtoes -0.236864
lfemur -21.1601 6.23512 -18.5032
ltibia 43.2251
lfoot 21.7627 -8.23923
ltoes -24.3717
390
root 41.2193 17.7551 -5.84691 343.141 -86.401 -324.347
lowerback 20.4733 -1.98227 2.44215
upperback 5.97265 -2.52824 -1.33848
thorax -5.11421 -1.38218 -2.19385
lowerneck 6.45606 0.177851 3.04595
upperneck -21.9443 0.478443 1.13095
head -7.81775 -0.340604 -0.152548
rclavicle -3.97569e-015 3.99557e-014
rhumerus -30.8515 -1.64142 -89.479
rradius 36.0873
rwrist -0.835216
rhand -22.0029 -9.81077
rfingers 7.12502
rthumb 4.40593 -39.7449
lclavicle -3.97569e-015 3.99557e-014
lhumerus -36.9153 6.08797 81.2782
lradius 31.8329
lwrist 23.189
lhand -21.025 14.1229
lfingers 7.12502
lthumb 5.35019 44.0354
rfemur -39.2521 0.384899 20.7836
rtibia 34.1513
rfoot 7.27649 -7.35594
rtoes 0.150823
lfemur -22.449 6.52993 -18.5526
ltibia 44.3339
lfoot 21.334 -8.2164
ltoes -24.4996
391
root 41.1251 17.765 -5.86865 345.035 -86.2568 -326.282
lowerback 20.5133 -1.99165 2.56953
upperback 6.00397 -2.5151 -1.32876
thorax -5.10444 -1.37638 -2.25869
lowerneck 6.44282 0.151864 3.04121
upperneck -21.9066 0.438725 1.11171
head -7.80308 -0.355473 -0.154933
rclavicle -2.31584e-014 -2.38542e-015
rhumerus -30.8694 -1.56551 -89.5075
rradius 36
rwrist -0.778958
rhand -22.0434 -9.66442
rfingers 7.12502
rthumb 4.36681 -39.5994
lclavicle -2.31584e-014 -2.38542e-015
lhumerus -37.0054 6.13561 81.1712
lradius 31.7691
lwrist 23.0063
lhand -21.0552 14.0829
lfingers 7.12502
lthumb 5.32105 43.996
rfemur -38.7891 0.307518 20.8572
rtibia 34.0666
rfoot 7.19235 -7.30378
rtoes 0.611506
lfemur -23.7317 6.81575 -18.6254
ltibia 45.3585
lfoot 20.8438 -8.14772
ltoes -24.5797
392
root 41.031 17.7725 -5.88961 346.761 -86.1122 -328.071
lowerback 20.5651 -1.99903 2.69252
upperback 6.04085 -2.50037 -1.31765
thorax -5.09429 -1.36992 -2.31973
lowerneck 6.43156 0.120903 3.03987
upperneck -21.8746 0.39298 1.09514
head -7.79077 -0.374019 -0.156469
rclavicle 4.2043e-014 3.57812e-014
rhumerus -30.8773 -1.50521 -89.5258
rradius 35.8804
rwrist -0.717637
rhand -22.1101 -9.51454
rfingers 7.12502
rthumb 4.3024 -39.4508
lclavicle 4.2043e-014 3.57812e-014
lhumerus -37.112 6.22001 81.0493
lradius 31.6996
lwrist 22.8486
lhand -21.0859 14.0376
lfingers 7.12502
lthumb 5.29145 43.9515
rfemur -38.3273 0.205985 20.9413
rtibia 34.0199
rfoot 7.12279 -7.22569
rtoes 1.00738
lfemur -24.9988 7.09997 -18.7221
ltibia 46.2913
lfoot 20.2795 -8.03516
ltoes -24.5903
393
root 40.9371 17.7778 -5.90971 348.361 -85.9728 -329.756
lowerback 20.6353 -2.00183 2.81454
upperback 6.08228 -2.47986 -1.30479
thorax -5.08813 -1.36084 -2.37939
lowerneck 6.42418 0.0820972 3.04081
upperneck -21.8524 0.337431 1.08316
head -7.78258 -0.39828 -0.155995
rclavicle 1.17283e-014 -4.17448e-015
rhumerus -30.8812 -1.46681 -89.5311
rradius 35.7556
rwrist -0.682193
rhand -22.1506 -9.44813
rfingers 7.12502
rthumb 4.26338 -39.3852
lclavicle 1.17283e-014 -4.17448e-015
lhumerus -37.2323 6.31481 80.9231
lradius 31.6221
lwrist 22.7393
lhand -21.1192 13.9994
lfingers 7.12502
lthumb 5.25923 43.9142
rfemur -37.8664 0.0757301 21.0429
rtibia 34.0114
rfoot 7.05198 -7.14435
rtoes 1.45281
lfemur -26.2449 7.38689 -18.8409
ltibia 47.1264
lfoot 19.6361 -7.88307
ltoes -24.5564
394
root 40.844 17.7812 -5.92923 349.901 -85.8356 -331.386
lowerback 20.7113 -2.00114 2.93415
upperback 6.1215 -2.45476 -1.28905
thorax -5.08676 -1.34956 -2.43559
lowerneck 6.42188 0.0347573 3.05299
upperneck -21.8376 0.271168 1.06914
head -7.77788 -0.428675 -0.157133
rclavicle 2.66371e-014 3.67752e-015
rhumerus -30.8832 -1.44581 -89.5263
rradius 35.6448
rwrist -0.7124
rhand -22.1091 -9.53927
rfingers 7.12502
rthumb 4.30338 -39.4755
lclavicle 2.66371e-014 3.67752e-015
lhumerus -37.3669 6.41293 80.7947
lradius 31.5303
lwrist 22.6743
lhand -21.1573 13.9731
lfingers 7.12502
lthumb 5.22244 43.8887
rfemur -37.4279 -0.08112 21.1625
rtibia 34.0402
rfoot 6.9725 -7.07175
rtoes 1.94713
lfemur -27.4955 7.67295 -18.9828
ltibia 47.8621
lfoot 18.9342 -7.6888
ltoes -24.4497
395
root 40.751 17.7824 -5.94811 351.354 -85.7251 -332.949
lowerback 20.8065 -1.98924 3.04566
upperback 6.1643 -2.41653 -1.26938
thorax -5.08984 -1.33213 -2.48584
lowerneck 6.42144 -0.0153514 3.07124
upperneck -21.8336 0.200824 1.05118
head -7.77721 -0.461587 -0.160186
rclavicle -3.27995e-014 -5.48646e-014
rhumerus -30.8798 -1.44333 -89.5101
rradius 35.5427
rwrist -0.776507
rhand -21.9929 -9.74275
rfingers 7.12502
rthumb 4.41567 -39.6767
lclavicle -3.27995e-014 -5.48646e-014
lhumerus -37.5124 6.51403 80.6685
lradius 31.4234
lwrist 22.6403
lhand -21.2002 13.9905
lfingers 7.12502
lthumb 5.18109 43.9072
rfemur -36.9913 -0.247378 21.3058
rtibia 34.1007
rfoot 6.88355 -6.9996
rtoes 2.496
lfemur -28.7261 7.97529 -19.1429
ltibia 48.4973
lfoot 18.1874 -7.46429
ltoes -24.3009
396
root 40.6579 17.7818 -5.96681 352.867 -85.6432 -334.58
lowerback 20.91 -1.96599 3.14933
upperback 6.20744 -2.36452 -1.24145
thorax -5.09512 -1.30815 -2.5261
lowerneck 6.43014 -0.0674254 3.10358
upperneck -21.8418 0.127418 1.02084
head -7.78227 -0.496342 -0.169359
rclavicle -2.04748e-014 1.88845e-014
rhumerus -30.8755 -1.45058 -89.4853
rradius 35.4453
rwrist -0.868608
rhand -21.8246 -10.0252
rfingers 7.12502
rthumb 4.57809 -39.9557
lclavicle -2.04748e-014 1.88845e-014
lhumerus -37.6701 6.61038 80.5482
lradius 31.2977
lwrist 22.6175
lhand -21.2396 14.0304
lfingers 7.12502
lthumb 5.143 43.948
rfemur -36.564 -0.412179 21.4806
rtibia 34.188
rfoot 6.78727 -6.93617
rtoes 3.02747
lfemur -29.9507 8.29735 -19.3119
ltibia 49.0344
lfoot 17.4389 -7.21254
ltoes -24.1207
397
root 40.5647 17.7796 -5.98492 354.425 -85.5923 -336.265
lowerback 21.0231 -1.93281 3.24842
upperback 6.25186 -2.30019 -1.20771
thorax -5.10244 -1.27835 -2.56052
lowerneck 6.4367 -0.119105 3.14069
upperneck -21.855 0.0539003 0.985916
head -7.7887 -0.531355 -0.180801
rclavicle -4.87022e-015 1.3418e-014
rhumerus -30.8631 -1.47434 -89.4515
rradius 35.3251
rwrist -0.92982
rhand -21.7031 -10.2176
rfingers 7.12502
rthumb 4.69542 -40.1456
lclavicle -4.87022e-015 1.3418e-014
lhumerus -37.836 6.70062 80.436
lradius 31.1563
lwrist 22.5812
lhand -21.2685 14.1019
lfingers 7.12502
lthumb 5.11512 44.0201
rfemur -36.1411 -0.58051 21.6848
rtibia 34.2943
rfoot 6.68692 -6.87383
rtoes 3.55285
lfemur -31.1655 8.63113 -19.4935
ltibia 49.4742
lfoot 16.7246 -6.93868
ltoes -23.9275
